<svg width="22" height="26" viewBox="0 0 22 26" fill="none" xmlns="http://www.w3.org/2000/svg">
<path d="M21.7075 7.2925L14.7075 0.2925C14.6146 0.199666 14.5042 0.126052 14.3829 0.0758639C14.2615 0.0256758 14.1314 -0.000102986 14 3.09198e-07H2C1.46957 3.09198e-07 0.960859 0.210714 0.585786 0.585787C0.210714 0.960859 0 1.46957 0 2V24C0 24.5304 0.210714 25.0391 0.585786 25.4142C0.960859 25.7893 1.46957 26 2 26H20C20.5304 26 21.0391 25.7893 21.4142 25.4142C21.7893 25.0391 22 24.5304 22 24V8C22.0001 7.86864 21.9743 7.73855 21.9241 7.61715C21.8739 7.49576 21.8003 7.38544 21.7075 7.2925ZM15 3.41375L18.5863 7H15V3.41375ZM20 24H2V2H13V8C13 8.26522 13.1054 8.51957 13.2929 8.70711C13.4804 8.89464 13.7348 9 14 9H20V24ZM14.7075 16.2925C14.8005 16.3854 14.8742 16.4957 14.9246 16.6171C14.9749 16.7385 15.0008 16.8686 15.0008 17C15.0008 17.1314 14.9749 17.2615 14.9246 17.3829C14.8742 17.5043 14.8005 17.6146 14.7075 17.7075L11.7075 20.7075C11.6146 20.8005 11.5043 20.8742 11.3829 20.9246C11.2615 20.9749 11.1314 21.0008 11 21.0008C10.8686 21.0008 10.7385 20.9749 10.6171 20.9246C10.4957 20.8742 10.3854 20.8005 10.2925 20.7075L7.2925 17.7075C7.10486 17.5199 6.99944 17.2654 6.99944 17C6.99944 16.7346 7.10486 16.4801 7.2925 16.2925C7.48014 16.1049 7.73464 15.9994 8 15.9994C8.26536 15.9994 8.51986 16.1049 8.7075 16.2925L10 17.5863V12C10 11.7348 10.1054 11.4804 10.2929 11.2929C10.4804 11.1054 10.7348 11 11 11C11.2652 11 11.5196 11.1054 11.7071 11.2929C11.8946 11.4804 12 11.7348 12 12V17.5863L13.2925 16.2925C13.3854 16.1995 13.4957 16.1258 13.6171 16.0754C13.7385 16.0251 13.8686 15.9992 14 15.9992C14.1314 15.9992 14.2615 16.0251 14.3829 16.0754C14.5043 16.1258 14.6146 16.1995 14.7075 16.2925Z" fill="#036DF5"/>
</svg>
