<svg width="20" height="21" viewBox="0 0 20 21" fill="none" xmlns="http://www.w3.org/2000/svg">
<g clip-path="url(#clip0_620_3226)">
<path d="M15.8333 1.33334H4.16667C3.062 1.33466 2.00296 1.77407 1.22185 2.55519C0.440735 3.3363 0.00132321 4.39534 0 5.5L0 15.5C0.00132321 16.6047 0.440735 17.6637 1.22185 18.4448C2.00296 19.2259 3.062 19.6653 4.16667 19.6667H15.8333C16.938 19.6653 17.997 19.2259 18.7782 18.4448C19.5593 17.6637 19.9987 16.6047 20 15.5V5.5C19.9987 4.39534 19.5593 3.3363 18.7782 2.55519C17.997 1.77407 16.938 1.33466 15.8333 1.33334ZM4.16667 3H15.8333C16.3323 3.00098 16.8196 3.15126 17.2325 3.43151C17.6453 3.71175 17.9649 4.10913 18.15 4.5725L11.7683 10.955C11.2987 11.4228 10.6628 11.6854 10 11.6854C9.33715 11.6854 8.70131 11.4228 8.23167 10.955L1.85 4.5725C2.03512 4.10913 2.35468 3.71175 2.76754 3.43151C3.1804 3.15126 3.66768 3.00098 4.16667 3ZM15.8333 18H4.16667C3.50363 18 2.86774 17.7366 2.3989 17.2678C1.93006 16.7989 1.66667 16.163 1.66667 15.5V6.75L7.05333 12.1333C7.83552 12.9135 8.89521 13.3517 10 13.3517C11.1048 13.3517 12.1645 12.9135 12.9467 12.1333L18.3333 6.75V15.5C18.3333 16.163 18.0699 16.7989 17.6011 17.2678C17.1323 17.7366 16.4964 18 15.8333 18Z" fill="#3FA3EC"/>
</g>
<defs>
<clipPath id="clip0_620_3226">
<rect width="20" height="20" fill="white" transform="translate(0 0.5)"/>
</clipPath>
</defs>
</svg>
