<svg width="25" height="33" viewBox="0 0 25 33" fill="none" xmlns="http://www.w3.org/2000/svg">
<path fill-rule="evenodd" clip-rule="evenodd" d="M16.7228 8.68911C20.8702 9.86447 23.0741 15.3888 21.6453 21.0282C20.2164 26.6675 15.6959 30.2864 11.5485 29.1112C7.40109 27.9358 5.19726 22.4116 6.62605 16.7721C8.05485 11.1328 12.5754 7.5139 16.7228 8.68911ZM24.5381 21.848C23.8273 24.6537 22.4272 27.2867 20.4099 29.2734C18.4943 31.16 16.0457 32.4182 13.4015 32.4962C12.5146 32.5224 11.6305 32.4135 10.7732 32.1706C7.26887 31.1772 4.09443 27.4507 2.41574 24.2056C-1.6458 16.3541 -0.0321653 6.55102 3.1875 0.653748C3.1875 0.653748 2.59672 3.70665 4.1275 6.15847C5.87225 8.95307 8.9061 6.20098 12.5958 5.08518C21.409 2.41994 26.6348 13.5724 24.5381 21.848Z" fill="#004790"/>
</svg>
