<svg width="16" height="16" viewBox="0 0 16 16" fill="none" xmlns="http://www.w3.org/2000/svg">
<g clip-path="url(#clip0_112_2683)">
<path d="M12 6.04255C12.0001 5.77439 11.9471 5.50887 11.8441 5.26127C11.7412 5.01367 11.5902 4.78889 11.4 4.59989C11.0107 4.22845 10.4934 4.02122 9.95533 4.02122C9.41729 4.02122 8.89992 4.22845 8.51066 4.59989L0.599996 12.5126C0.238942 12.8997 0.0422901 13.4119 0.0514866 13.9412C0.0606831 14.4705 0.275009 14.9756 0.649295 15.3499C1.02358 15.7243 1.52859 15.9387 2.05789 15.9481C2.58719 15.9574 3.09943 15.7609 3.48666 15.3999L11.4 7.48722C11.5905 7.29802 11.7416 7.07293 11.8446 6.82496C11.9476 6.57699 12.0004 6.31106 12 6.04255ZM2.544 14.4586C2.40923 14.587 2.23018 14.6587 2.044 14.6587C1.85781 14.6587 1.67876 14.587 1.544 14.4586C1.41161 14.3258 1.33726 14.146 1.33726 13.9586C1.33726 13.7711 1.41161 13.5913 1.544 13.4586L6.72333 8.27855L7.72666 9.28189L2.544 14.4586ZM10.4587 6.54389L8.66666 8.33655L7.66666 7.33322L9.45933 5.54122C9.52323 5.46822 9.60145 5.40911 9.68913 5.36757C9.7768 5.32603 9.87208 5.30293 9.96905 5.29971C10.066 5.29649 10.1626 5.31322 10.2529 5.34886C10.3431 5.38449 10.4251 5.43828 10.4937 5.50689C10.5623 5.57549 10.6161 5.65745 10.6517 5.74769C10.6873 5.83793 10.7041 5.93453 10.7008 6.0315C10.6976 6.12847 10.6745 6.22374 10.633 6.31142C10.5914 6.3991 10.5323 6.47732 10.4593 6.54122L10.4587 6.54389ZM3.242 1.90322L4.27533 1.60855L4.57 0.575219C4.61747 0.409409 4.71763 0.263564 4.85535 0.159739C4.99307 0.0559144 5.16086 -0.000244141 5.33333 -0.000244141C5.5058 -0.000244141 5.67358 0.0559144 5.8113 0.159739C5.94902 0.263564 6.04919 0.409409 6.09666 0.575219L6.39133 1.60855L7.42466 1.90322C7.59047 1.95069 7.73632 2.05086 7.84014 2.18858C7.94397 2.3263 8.00013 2.49408 8.00013 2.66655C8.00013 2.83902 7.94397 3.00681 7.84014 3.14453C7.73632 3.28225 7.59047 3.38242 7.42466 3.42989L6.39133 3.72455L6.09666 4.75789C6.04919 4.9237 5.94902 5.06954 5.8113 5.17337C5.67358 5.27719 5.5058 5.33335 5.33333 5.33335C5.16086 5.33335 4.99307 5.27719 4.85535 5.17337C4.71763 5.06954 4.61747 4.9237 4.57 4.75789L4.27533 3.72455L3.242 3.42989C3.07618 3.38242 2.93034 3.28225 2.82652 3.14453C2.72269 3.00681 2.66653 2.83902 2.66653 2.66655C2.66653 2.49408 2.72269 2.3263 2.82652 2.18858C2.93034 2.05086 3.07618 1.95069 3.242 1.90322ZM15.4247 11.4299L14.3913 11.7246L14.0967 12.7579C14.0492 12.9237 13.949 13.0695 13.8113 13.1734C13.6736 13.2772 13.5058 13.3333 13.3333 13.3333C13.1609 13.3333 12.9931 13.2772 12.8554 13.1734C12.7176 13.0695 12.6175 12.9237 12.57 12.7579L12.2753 11.7246L11.242 11.4299C11.0762 11.3824 10.9303 11.2822 10.8265 11.1445C10.7227 11.0068 10.6665 10.839 10.6665 10.6666C10.6665 10.4941 10.7227 10.3263 10.8265 10.1886C10.9303 10.0509 11.0762 9.95069 11.242 9.90322L12.2753 9.60855L12.57 8.57522C12.6175 8.40941 12.7176 8.26357 12.8554 8.15974C12.9931 8.05591 13.1609 7.99976 13.3333 7.99976C13.5058 7.99976 13.6736 8.05591 13.8113 8.15974C13.949 8.26357 14.0492 8.40941 14.0967 8.57522L14.3913 9.60855L15.4247 9.90322C15.5905 9.95069 15.7363 10.0509 15.8401 10.1886C15.944 10.3263 16.0001 10.4941 16.0001 10.6666C16.0001 10.839 15.944 11.0068 15.8401 11.1445C15.7363 11.2822 15.5905 11.3824 15.4247 11.4299ZM11.8367 1.66655L12.7407 1.40855L13 0.503219C13.0422 0.359097 13.13 0.232534 13.2502 0.142495C13.3704 0.0524552 13.5165 0.00378925 13.6667 0.00378925C13.8168 0.00378925 13.963 0.0524552 14.0832 0.142495C14.2033 0.232534 14.2911 0.359097 14.3333 0.503219L14.5913 1.40722L15.4953 1.66522C15.6395 1.70743 15.766 1.7952 15.8561 1.91539C15.9461 2.03558 15.9948 2.18171 15.9948 2.33189C15.9948 2.48206 15.9461 2.62819 15.8561 2.74838C15.766 2.86857 15.6395 2.95635 15.4953 2.99855L14.5913 3.25655L14.3333 4.16255C14.2911 4.30667 14.2033 4.43324 14.0832 4.52328C13.963 4.61332 13.8168 4.66198 13.6667 4.66198C13.5165 4.66198 13.3704 4.61332 13.2502 4.52328C13.13 4.43324 13.0422 4.30667 13 4.16255L12.742 3.25922L11.8367 2.99989C11.6925 2.95768 11.566 2.8699 11.4759 2.74971C11.3859 2.62953 11.3372 2.48339 11.3372 2.33322C11.3372 2.18304 11.3859 2.03691 11.4759 1.91672C11.566 1.79653 11.6925 1.70876 11.8367 1.66655Z" fill="#9CB3D7"/>
</g>
<defs>
<clipPath id="clip0_112_2683">
<rect width="16" height="16" fill="white"/>
</clipPath>
</defs>
</svg>
