<svg width="21" height="22" viewBox="0 0 21 22" fill="none" xmlns="http://www.w3.org/2000/svg">
<path d="M19.5845 14.5936L14.7999 12.4496L14.7867 12.4435C14.5383 12.3373 14.2673 12.2946 13.9983 12.3195C13.7293 12.3443 13.4707 12.4358 13.2459 12.5857C13.2195 12.6032 13.1941 12.6222 13.1698 12.6426L10.6977 14.75C9.13165 13.9893 7.51478 12.3846 6.75407 10.8388L8.86454 8.32922C8.88485 8.30383 8.90415 8.27844 8.92243 8.25102C9.06912 8.02687 9.15811 7.76994 9.1815 7.50308C9.20489 7.23623 9.16195 6.96773 9.05649 6.72148V6.7093L6.90642 1.91656C6.76701 1.59488 6.52731 1.32691 6.22309 1.15265C5.91887 0.978391 5.56645 0.907195 5.21845 0.949688C3.84224 1.13078 2.57902 1.80664 1.66471 2.85103C0.750395 3.89543 0.247521 5.23694 0.250009 6.625C0.250009 14.6891 6.81095 21.25 14.875 21.25C16.2631 21.2525 17.6046 20.7496 18.649 19.8353C19.6934 18.921 20.3692 17.6578 20.5503 16.2816C20.5929 15.9337 20.5218 15.5813 20.3478 15.2771C20.1737 14.9729 19.906 14.7332 19.5845 14.5936ZM14.875 19.625C11.4284 19.6212 8.12394 18.2504 5.68678 15.8132C3.24962 13.3761 1.87877 10.0717 1.87501 6.625C1.87119 5.63323 2.2285 4.67398 2.88021 3.92639C3.53192 3.1788 4.43347 2.69399 5.41649 2.5625C5.41609 2.56655 5.41609 2.57064 5.41649 2.57469L7.54931 7.34813L5.45001 9.86078C5.4287 9.8853 5.40935 9.91145 5.39212 9.93898C5.23928 10.1735 5.14962 10.4435 5.13183 10.7229C5.11404 11.0023 5.16871 11.2815 5.29056 11.5335C6.21071 13.4155 8.10688 15.2974 10.0092 16.2166C10.263 16.3373 10.5439 16.3901 10.8242 16.3698C11.1046 16.3495 11.3749 16.2568 11.6088 16.1008C11.6348 16.0832 11.6599 16.0642 11.6839 16.0439L14.1529 13.9375L18.9263 16.0754C18.9263 16.0754 18.9345 16.0754 18.9375 16.0754C18.8076 17.0598 18.3235 17.9632 17.5758 18.6165C16.8281 19.2698 15.8679 19.6283 14.875 19.625Z" fill="#3FA3EC"/>
</svg>
